<?xml version="1.0" encoding="UTF-8"?>
<svg id="_레이어_1" data-name="레이어_1" xmlns="http://www.w3.org/2000/svg" version="1.1" viewBox="0 0 61.04 87.11">
  <!-- Generator: Adobe Illustrator 29.0.1, SVG Export Plug-In . SVG Version: 2.1.0 Build 192)  -->
  <defs>
    <style>
      .st0 {
        fill: #0098e1;
      }

      .st1 {
        fill: #fff;
      }

      .st2 {
        fill: #5cb531;
      }
    </style>
  </defs>
  <path class="st0" d="M26.86,33.16h-14.92v-6.27h14.92v-15.08l7.22-1.77v-4.13L2.59.29C1.3.05.24.94.24,2.25v69.06c0,1.3,1.05,2.17,2.34,1.92l24.28-4.84v-35.23Z"/>
  <path class="st2" d="M58.39,4.07l-24.31,5.97v16.85h14.93v6.27h-14.93v33.79l-7.22,1.43v10.25l31.53,8.12c1.27.33,2.31-.48,2.31-1.79V5.89c0-1.31-1.05-2.13-2.31-1.82Z"/>
  <polygon class="st1" points="34.07 33.17 49 33.17 49 26.89 34.07 26.89 34.07 10.04 26.85 11.81 26.85 26.89 11.94 26.89 11.94 33.17 26.85 33.17 26.85 68.39 34.07 66.96 34.07 33.17"/>
</svg>